<mxfile host="app.diagrams.net" modified="2024-07-05T15:31:16.235Z" agent="Mozilla/5.0 (Macintosh; Intel Mac OS X 10_15_7) AppleWebKit/537.36 (KHTML, like Gecko) Chrome/126.0.0.0 Safari/537.36 Edg/126.0.0.0" etag="1EmCOu14KvThlyISaTJ6" version="24.6.4" type="github">
  <diagram name="Page-1" id="9D6bF_lyKUEiErElbCuO">
    <mxGraphModel dx="2253" dy="692" grid="1" gridSize="10" guides="1" tooltips="1" connect="1" arrows="1" fold="1" page="1" pageScale="1" pageWidth="827" pageHeight="1169" math="0" shadow="0">
      <root>
        <mxCell id="0" />
        <mxCell id="1" parent="0" />
        <mxCell id="MOvSbtQbpHTzn6U8jJrC-1" style="edgeStyle=orthogonalEdgeStyle;rounded=0;orthogonalLoop=1;jettySize=auto;html=1;exitX=0.25;exitY=0;exitDx=0;exitDy=0;entryX=0.25;entryY=1;entryDx=0;entryDy=0;" edge="1" parent="1">
          <mxGeometry relative="1" as="geometry">
            <mxPoint x="180" y="449.67" as="sourcePoint" />
            <mxPoint x="390" y="449.67" as="targetPoint" />
          </mxGeometry>
        </mxCell>
        <mxCell id="MOvSbtQbpHTzn6U8jJrC-2" style="edgeStyle=orthogonalEdgeStyle;rounded=0;orthogonalLoop=1;jettySize=auto;html=1;exitX=0.75;exitY=0;exitDx=0;exitDy=0;entryX=0.75;entryY=1;entryDx=0;entryDy=0;" edge="1" parent="1" source="MOvSbtQbpHTzn6U8jJrC-3" target="MOvSbtQbpHTzn6U8jJrC-7">
          <mxGeometry relative="1" as="geometry" />
        </mxCell>
        <mxCell id="MOvSbtQbpHTzn6U8jJrC-3" value="Action Manager" style="rounded=0;whiteSpace=wrap;html=1;direction=south;" vertex="1" parent="1">
          <mxGeometry x="100" y="410" width="90" height="270" as="geometry" />
        </mxCell>
        <mxCell id="MOvSbtQbpHTzn6U8jJrC-4" value="" style="edgeStyle=orthogonalEdgeStyle;rounded=0;orthogonalLoop=1;jettySize=auto;html=1;" edge="1" parent="1" source="MOvSbtQbpHTzn6U8jJrC-7" target="MOvSbtQbpHTzn6U8jJrC-8">
          <mxGeometry relative="1" as="geometry" />
        </mxCell>
        <mxCell id="MOvSbtQbpHTzn6U8jJrC-5" style="edgeStyle=orthogonalEdgeStyle;rounded=0;orthogonalLoop=1;jettySize=auto;html=1;exitX=0.25;exitY=1;exitDx=0;exitDy=0;entryX=0.25;entryY=0;entryDx=0;entryDy=0;" edge="1" parent="1" source="MOvSbtQbpHTzn6U8jJrC-7" target="MOvSbtQbpHTzn6U8jJrC-3">
          <mxGeometry relative="1" as="geometry" />
        </mxCell>
        <mxCell id="MOvSbtQbpHTzn6U8jJrC-6" value="LLM ID" style="edgeLabel;html=1;align=center;verticalAlign=middle;resizable=0;points=[];" vertex="1" connectable="0" parent="MOvSbtQbpHTzn6U8jJrC-5">
          <mxGeometry x="0.3048" y="-3" relative="1" as="geometry">
            <mxPoint as="offset" />
          </mxGeometry>
        </mxCell>
        <mxCell id="MOvSbtQbpHTzn6U8jJrC-7" value="Skill Manager" style="rounded=0;whiteSpace=wrap;html=1;direction=south;" vertex="1" parent="1">
          <mxGeometry x="390" y="410" width="90" height="270" as="geometry" />
        </mxCell>
        <mxCell id="MOvSbtQbpHTzn6U8jJrC-8" value="Skill DB&amp;nbsp;&lt;div&gt;Interface&lt;/div&gt;" style="rounded=0;whiteSpace=wrap;html=1;direction=south;" vertex="1" parent="1">
          <mxGeometry x="630" y="410" width="80" height="270" as="geometry" />
        </mxCell>
        <mxCell id="MOvSbtQbpHTzn6U8jJrC-9" value="Skill DB" style="shape=cylinder3;whiteSpace=wrap;html=1;boundedLbl=1;backgroundOutline=1;size=15;" vertex="1" parent="1">
          <mxGeometry x="790" y="492.5" width="90" height="80" as="geometry" />
        </mxCell>
        <mxCell id="MOvSbtQbpHTzn6U8jJrC-10" value="" style="shape=doubleArrow;whiteSpace=wrap;html=1;" vertex="1" parent="1">
          <mxGeometry x="710" y="518" width="80" height="35" as="geometry" />
        </mxCell>
        <mxCell id="MOvSbtQbpHTzn6U8jJrC-11" value="Get Highest priority&amp;nbsp;&lt;div&gt;LLM ID (Skill ID)&lt;/div&gt;" style="text;html=1;align=center;verticalAlign=middle;resizable=0;points=[];autosize=1;strokeColor=none;fillColor=none;" vertex="1" parent="1">
          <mxGeometry x="200" y="430" width="130" height="40" as="geometry" />
        </mxCell>
        <mxCell id="MOvSbtQbpHTzn6U8jJrC-12" value="" style="edgeStyle=none;orthogonalLoop=1;jettySize=auto;html=1;rounded=0;entryX=0.391;entryY=1.004;entryDx=0;entryDy=0;entryPerimeter=0;" edge="1" parent="1" target="MOvSbtQbpHTzn6U8jJrC-7">
          <mxGeometry width="100" relative="1" as="geometry">
            <mxPoint x="190" y="515" as="sourcePoint" />
            <mxPoint x="290" y="515" as="targetPoint" />
            <Array as="points" />
          </mxGeometry>
        </mxCell>
        <mxCell id="MOvSbtQbpHTzn6U8jJrC-13" value="Get pre &amp;amp; post processing" style="text;html=1;align=center;verticalAlign=middle;resizable=0;points=[];autosize=1;strokeColor=none;fillColor=none;" vertex="1" parent="1">
          <mxGeometry x="190" y="488" width="160" height="30" as="geometry" />
        </mxCell>
        <mxCell id="MOvSbtQbpHTzn6U8jJrC-14" value="strategies" style="text;html=1;align=center;verticalAlign=middle;resizable=0;points=[];autosize=1;strokeColor=none;fillColor=none;" vertex="1" parent="1">
          <mxGeometry x="225" y="508" width="80" height="30" as="geometry" />
        </mxCell>
        <mxCell id="MOvSbtQbpHTzn6U8jJrC-15" value="" style="edgeStyle=none;orthogonalLoop=1;jettySize=auto;html=1;rounded=0;entryX=0.48;entryY=-0.004;entryDx=0;entryDy=0;entryPerimeter=0;exitX=0.48;exitY=1.026;exitDx=0;exitDy=0;exitPerimeter=0;" edge="1" parent="1">
          <mxGeometry width="100" relative="1" as="geometry">
            <mxPoint x="387.30000000000007" y="544.6700000000001" as="sourcePoint" />
            <mxPoint x="189.9999999999999" y="544.6700000000001" as="targetPoint" />
            <Array as="points" />
          </mxGeometry>
        </mxCell>
        <mxCell id="MOvSbtQbpHTzn6U8jJrC-16" value="Strategies" style="edgeLabel;html=1;align=center;verticalAlign=middle;resizable=0;points=[];" vertex="1" connectable="0" parent="MOvSbtQbpHTzn6U8jJrC-15">
          <mxGeometry x="0.1519" y="-2" relative="1" as="geometry">
            <mxPoint as="offset" />
          </mxGeometry>
        </mxCell>
        <mxCell id="MOvSbtQbpHTzn6U8jJrC-17" value="Get prompt template" style="text;html=1;align=center;verticalAlign=middle;resizable=0;points=[];autosize=1;strokeColor=none;fillColor=none;" vertex="1" parent="1">
          <mxGeometry x="205" y="588" width="130" height="30" as="geometry" />
        </mxCell>
        <mxCell id="MOvSbtQbpHTzn6U8jJrC-18" value="" style="edgeStyle=none;orthogonalLoop=1;jettySize=auto;html=1;rounded=0;entryX=0.853;entryY=-0.004;entryDx=0;entryDy=0;entryPerimeter=0;exitX=0.851;exitY=0.996;exitDx=0;exitDy=0;exitPerimeter=0;" edge="1" parent="1" source="MOvSbtQbpHTzn6U8jJrC-7" target="MOvSbtQbpHTzn6U8jJrC-3">
          <mxGeometry width="100" relative="1" as="geometry">
            <mxPoint x="280" y="640" as="sourcePoint" />
            <mxPoint x="380" y="640" as="targetPoint" />
            <Array as="points" />
          </mxGeometry>
        </mxCell>
        <mxCell id="MOvSbtQbpHTzn6U8jJrC-19" value="prompt template" style="edgeLabel;html=1;align=center;verticalAlign=middle;resizable=0;points=[];" vertex="1" connectable="0" parent="MOvSbtQbpHTzn6U8jJrC-18">
          <mxGeometry x="0.1669" relative="1" as="geometry">
            <mxPoint as="offset" />
          </mxGeometry>
        </mxCell>
        <mxCell id="MOvSbtQbpHTzn6U8jJrC-20" value="Query the&amp;nbsp;&lt;div&gt;Skill DB&amp;nbsp;&lt;div&gt;using the&lt;/div&gt;&lt;div&gt;&lt;br&gt;&lt;/div&gt;&lt;div&gt;&amp;nbsp;Skill DB&amp;nbsp;&lt;div&gt;interface and&amp;nbsp;&lt;/div&gt;&lt;div&gt;returns the&amp;nbsp;&lt;/div&gt;&lt;div&gt;response&lt;/div&gt;&lt;/div&gt;&lt;/div&gt;" style="text;html=1;align=center;verticalAlign=middle;resizable=0;points=[];autosize=1;strokeColor=none;fillColor=none;" vertex="1" parent="1">
          <mxGeometry x="490" y="482.5" width="100" height="130" as="geometry" />
        </mxCell>
        <mxCell id="MOvSbtQbpHTzn6U8jJrC-21" value="" style="edgeStyle=none;orthogonalLoop=1;jettySize=auto;html=1;rounded=0;" edge="1" parent="1">
          <mxGeometry width="100" relative="1" as="geometry">
            <mxPoint x="-60" y="545" as="sourcePoint" />
            <mxPoint x="100" y="544.58" as="targetPoint" />
            <Array as="points" />
          </mxGeometry>
        </mxCell>
        <mxCell id="MOvSbtQbpHTzn6U8jJrC-22" value="&amp;nbsp; &amp;nbsp; &amp;nbsp; &amp;nbsp; &amp;nbsp; &amp;nbsp; &amp;nbsp; &amp;nbsp; &amp;nbsp; User specifies skill in Query" style="text;html=1;align=center;verticalAlign=middle;resizable=0;points=[];autosize=1;strokeColor=none;fillColor=none;" vertex="1" parent="1">
          <mxGeometry x="-125" y="518" width="230" height="30" as="geometry" />
        </mxCell>
      </root>
    </mxGraphModel>
  </diagram>
</mxfile>
